<svg width="63" height="64" viewBox="0 0 63 64" fill="none" xmlns="http://www.w3.org/2000/svg">
<path d="M59.7001 0.544922H3.45574C1.58093 0.544922 0.331055 1.7948 0.331055 3.66961V59.9139C0.331055 61.7887 1.58093 63.0386 3.45574 63.0386H59.7001C61.5749 63.0386 62.8247 61.7887 62.8247 59.9139V3.66961C62.8247 1.7948 61.5749 0.544922 59.7001 0.544922ZM49.3886 23.3551L28.1407 44.603C26.8909 45.8528 25.0161 45.8528 23.7662 44.603L13.7672 34.604C12.5173 33.3541 12.5173 31.4793 13.7672 30.2294C15.0171 28.9795 16.8919 28.9795 18.1418 30.2294L25.9535 38.0411L45.014 18.9806C46.2639 17.7307 48.1387 17.7307 49.3886 18.9806C50.6385 20.2304 50.6385 22.1052 49.3886 23.3551Z" fill="#03B74B"/>
</svg>
