<svg width="76" height="76" viewBox="0 0 76 76" fill="none" xmlns="http://www.w3.org/2000/svg">
<path d="M70.7422 6.85689C70.4298 5.91949 69.4924 4.98208 68.5549 4.66962C55.4313 1.23246 41.9951 5.29455 32.9335 15.9185L29.4964 19.9806L21.0597 18.1058C16.9977 16.5434 12.6231 18.4182 10.7483 22.1678L3.87398 34.3541C3.24904 35.2915 3.24904 36.2289 3.87398 37.1663C4.18644 38.1037 5.12385 38.7287 6.06125 39.0411L15.7478 41.2284C14.8104 43.7282 14.4979 46.2279 13.873 48.7277C13.873 49.6651 14.1854 50.6025 14.8104 51.2274L24.4969 60.9139C25.1218 61.5389 25.7468 61.8513 26.6842 61.8513H26.9966C29.8089 61.5389 32.3086 61.2264 34.8084 60.289L36.6832 69.663C36.9956 70.6004 37.6206 71.5378 38.558 71.8503C38.8704 72.1628 39.4954 72.1628 39.8078 72.1628C40.4328 72.1628 40.7453 72.1628 41.3702 71.8503L53.5565 64.976C56.9936 63.1012 58.8684 58.7266 57.931 54.6646L55.7437 45.9154L59.4934 42.4783C69.8048 33.7292 74.1794 19.6681 70.7422 6.85689ZM22.9346 27.7923C21.0597 30.292 19.1849 32.7918 17.9351 35.2915L11.3732 33.7292L16.0602 25.2925C16.6852 24.0427 17.9351 23.7302 19.4974 24.0427L24.8094 25.2925L22.9346 27.7923ZM50.1193 59.3516L41.6827 64.0386L40.4328 57.7892C43.245 56.5394 45.7448 54.6646 47.932 52.7897L50.1193 50.6025L51.3692 55.9144C51.9941 57.4768 51.0567 59.0391 50.1193 59.3516ZM52.3066 27.7923C49.8068 27.7923 47.6196 25.605 47.6196 23.1052C47.6196 20.6055 49.8068 18.4182 52.3066 18.4182C54.8063 18.4182 56.9936 20.6055 56.9936 23.1052C56.9936 25.605 55.1188 27.7923 52.3066 27.7923Z" fill="#03B74B"/>
</svg>
