<svg width="445" height="394" viewBox="0 0 445 394" fill="none" xmlns="http://www.w3.org/2000/svg">
<g id="Group">
<path id="Vector" d="M127.585 152.752C139.026 186.93 170.866 211.519 208.367 211.519C255.502 211.519 293.709 172.708 293.709 124.839C293.709 112.5 291.15 100.765 286.576 90.1317L322.71 79.5137C328.107 93.5583 331.107 108.838 331.107 124.839C331.107 193.695 276.164 249.506 208.382 249.506C155.145 249.506 109.834 215.063 92.8335 166.929L127.585 152.752Z" fill="#FCCA47"/>
<path id="Vector_2" d="M320.71 74.6301L285.473 85.1452C277.399 66.6592 264.075 56.1882 246.31 47.2025L260.987 12.2012C287.547 25.0252 308.827 47.2467 320.71 74.6301Z" fill="#03B74B" fill-opacity="0.5"/>
<path id="Vector_3" d="M208.383 0.171875C221.898 0.171875 234.898 2.42196 247.061 6.52506L232.942 41.8206C225.163 39.4528 216.912 38.1586 208.383 38.1586C161.248 38.1586 123.041 76.969 123.041 124.838C123.041 130.103 123.526 135.236 124.409 140.236L88.5838 151.942C86.6719 143.207 85.6425 134.148 85.6425 124.838C85.6572 55.9976 140.601 0.171875 208.383 0.171875Z" fill="#03B74B"/>
<path id="Vector_4" d="M329.549 119.852C334.534 123.264 342.946 125.896 345.064 136.147C347.152 146.397 356.108 164.545 369.771 162.721L376.095 193.752C376.095 193.752 413.714 199.017 419.214 179.546C419.214 179.546 404.493 141.147 404.243 133.794C403.978 126.411 403.434 101.984 390.036 95.1452C390.036 95.1452 379.242 67.5117 358.226 69.6295C344.093 71.056 338.505 78.0415 337.005 83.1006C338.284 82.7329 339.637 82.5417 341.034 82.5417C344.299 82.5417 347.329 83.6006 349.785 85.3948C349.976 85.2918 350.152 85.2183 350.329 85.1448C353.211 83.8359 371.344 85.4095 366.903 98.2923C366.903 98.2923 356.108 105.101 356.903 117.205C356.903 117.205 355.594 120.896 351.917 117.205C350.682 115.999 348.299 113.94 345.505 111.778C339.799 107.381 332.402 102.601 329.578 103.837C329.034 104.087 328.549 104.469 328.107 104.969C325.225 108.307 325.196 116.867 329.549 119.852Z" fill="#F8A696"/>
<path id="Vector_5" d="M337.182 88.2776C339.152 90.2629 346.52 86.8805 349.8 85.3804C347.344 83.5862 344.314 82.5273 341.049 82.5273C339.652 82.5273 338.299 82.7185 337.02 83.0862C336.24 85.5716 336.49 87.5864 337.182 88.2776Z" fill="#F8A696"/>
<g id="Group 1000004166">
<g id="Group 1000004166_2">
<g id="Vector_6" filter="url(#filter0_d_339_56554)">
<path d="M340.92 112.45C332.667 112.45 325.978 105.76 325.978 97.5082C325.978 89.2561 332.667 82.5664 340.92 82.5664C349.172 82.5664 355.861 89.2561 355.861 97.5082C355.861 105.76 349.172 112.45 340.92 112.45Z" fill="#CFE6D8"/>
<path d="M326.478 97.5082C326.478 105.484 332.944 111.95 340.92 111.95C348.896 111.95 355.361 105.484 355.361 97.5082C355.361 89.5322 348.896 83.0664 340.92 83.0664C332.944 83.0664 326.478 89.5322 326.478 97.5082Z" stroke="#234046"/>
</g>
<path id="Vector_7" d="M340.616 87.2617H344.868L341.948 93.658L341.743 94.1071L342.19 94.3178L345.849 96.0454L339.085 107.3L340.731 99.1269L340.814 98.7182L340.426 98.5637L337.215 97.283L340.589 87.2617H340.616Z" fill="#00CE58" stroke="#234046"/>
</g>
</g>
<path id="Vector_8" d="M392.404 103.809C392.404 103.809 350.329 106.573 360.844 138.531" stroke="#EC6567" stroke-width="1.86667" stroke-miterlimit="10" stroke-linecap="round"/>
<path id="Vector_9" d="M393.712 118.266C393.712 118.266 360.049 130.104 362.417 142.193C364.784 154.296 388.976 151.929 392.403 151.929C395.815 151.929 398.977 144.825 392.403 142.987C385.829 141.149 384.506 139.59 384.506 139.59L396.227 135.193" stroke="#EC6567" stroke-width="1.86667" stroke-miterlimit="10" stroke-linecap="round"/>
<path id="Vector_10" d="M273.208 80.6454C279.87 87.5722 268.223 92.0135 268.223 92.0135C268.223 92.0135 279.341 103.176 265.149 110.308C250.957 117.456 204.573 133 204.573 133C204.573 133 178.543 101.352 195.984 82.3219C213.412 63.2771 242.913 71.8657 253.648 76.9541C264.355 82.0572 273.208 80.6454 273.208 80.6454Z" fill="#234046"/>
<path id="Vector_11" d="M258.501 90.7197C258.501 90.7197 244.604 92.5727 239.78 84.043H236.265C236.265 84.043 235.898 99.6024 227.927 103.691C227.927 103.691 225.882 94.4257 219.588 93.8669C219.588 93.8669 208.279 89.9697 205.132 102.573C204.205 106.47 208.646 111.838 213.47 113.132C213.47 113.132 200.837 142.589 198.058 145.001C195.278 147.413 230.059 148.531 230.059 148.531L236.074 139.633C236.074 139.633 256.898 138.442 261.604 113.691C261.604 113.691 267.693 109.956 265.928 109.367C264.163 108.779 259.251 107.794 259.251 104.456C259.266 101.132 258.501 90.7197 258.501 90.7197Z" fill="#F8A696"/>
<g id="Group_2">
<path id="Vector_12" d="M235.059 140.251C235.662 140.251 236.192 139.81 236.28 139.192C236.383 138.516 235.912 137.898 235.236 137.795C216.794 135.119 215.853 120.53 215.823 119.912C215.794 119.236 215.176 118.736 214.529 118.75C213.852 118.78 213.323 119.353 213.352 120.03C213.367 120.206 214.382 137.251 234.868 140.236C234.942 140.251 235 140.251 235.059 140.251Z" fill="#EC6567"/>
</g>
<g id="Group_3">
<path id="Vector_13" d="M220.441 107.853C220.588 107.853 220.721 107.823 220.868 107.779C221.5 107.544 221.824 106.838 221.588 106.205C221.471 105.867 218.426 97.9404 211.955 97.9846C211.279 97.9993 210.735 98.5581 210.75 99.2346C210.764 99.9111 211.25 100.455 212 100.441C216.662 100.411 219.25 106.985 219.279 107.058C219.485 107.544 219.941 107.853 220.441 107.853Z" fill="#EC6567"/>
</g>
<g id="Group_4">
<path id="Vector_14" d="M239.765 98.7043C240.059 98.7043 240.368 98.6014 240.603 98.3808C244.971 94.3071 250.707 98.3073 250.957 98.4837C251.501 98.8808 252.28 98.7484 252.663 98.2043C253.06 97.6455 252.927 96.8807 252.383 96.4983C249.765 94.6159 243.603 92.2335 238.927 96.6013C238.427 97.0719 238.397 97.8366 238.868 98.3367C239.118 98.572 239.442 98.7043 239.765 98.7043Z" fill="black"/>
</g>
<g id="Group_5">
<path id="Vector_15" d="M252.001 125.648C252.384 125.648 252.634 125.618 252.663 125.618C253.34 125.545 253.825 124.942 253.751 124.265C253.678 123.589 253.09 123.089 252.398 123.177C252.34 123.192 249.869 123.398 248.325 121.912C247.295 120.942 246.839 119.368 246.957 117.28C246.986 116.603 246.472 116.03 245.795 115.986C245.133 115.956 244.545 116.471 244.501 117.147C244.354 120.015 245.075 122.221 246.648 123.721C248.457 125.412 250.854 125.648 252.001 125.648Z" fill="#EC6567"/>
</g>
<path id="Vector_16" d="M247.486 106.882C245.894 106.882 244.603 105.592 244.603 104C244.603 102.408 245.894 101.117 247.486 101.117C249.078 101.117 250.368 102.408 250.368 104C250.368 105.592 249.078 106.882 247.486 106.882Z" fill="#234046"/>
<path id="Vector_17" d="M233.162 143.869L200.587 139.59C200.587 139.59 191.249 161.532 184.116 163.12C176.984 164.708 83.127 165.9 71.6413 201.533V270.683L330.504 275.669C330.504 275.669 374.374 306.288 398.875 305.287C423.376 304.287 454.862 288.787 440.362 238.3C425.861 187.812 416.419 172.032 416.419 172.032C416.419 172.032 405.507 196.886 374.006 183.4L379.374 225.314C379.374 225.314 319.386 179.327 316.386 177.327C313.386 175.327 295.885 162.826 272.899 163.826C249.913 164.826 234.412 165.826 230.912 165.826C227.412 165.826 225.927 155.899 233.162 143.869Z" fill="#81DBA5"/>
<g id="Group_6">
<path id="Vector_18" d="M392.404 281.756C392.507 281.756 392.61 281.741 392.712 281.711C393.374 281.535 393.757 280.873 393.595 280.211C393.492 279.8 382.477 238.342 380.359 225.915C380.241 225.239 379.844 225.327 379.168 225.445C378.491 225.562 378.844 226.092 378.962 226.768C381.094 239.298 391.124 280.432 391.227 280.844C391.359 281.388 391.859 281.756 392.404 281.756Z" fill="#5F9887"/>
</g>
<g id="Group_7">
<path id="Vector_19" opacity="0.0323" d="M2.59424 194.842H337.387V391.717H2.59424V194.842Z" fill="black"/>
<path id="Vector_20" opacity="0.0645" d="M4.78543 196.15H335.181V389.908H4.78543V196.15Z" fill="black"/>
<path id="Vector_21" opacity="0.0968" d="M6.99225 197.443H332.99V388.083H6.99225V197.443Z" fill="black"/>
<path id="Vector_22" opacity="0.129" d="M9.18243 198.738H330.783V386.275H9.18243V198.738Z" fill="black"/>
<path id="Vector_23" opacity="0.1613" d="M11.403 200.033H328.592V384.452H11.403V200.033Z" fill="black"/>
<path id="Vector_24" opacity="0.1935" d="M13.5951 201.326H326.387V382.627H13.5951V201.326Z" fill="black"/>
<path id="Vector_25" opacity="0.2258" d="M15.8009 202.635H324.195V380.833H15.8009V202.635Z" fill="black"/>
<path id="Vector_26" opacity="0.2581" d="M17.9921 203.93H321.989V379.01H17.9921V203.93Z" fill="black"/>
<path id="Vector_27" opacity="0.2903" d="M20.1979 205.225H319.798V377.187H20.1979V205.225Z" fill="black"/>
<path id="Vector_28" opacity="0.3226" d="M22.3891 206.518H317.592V375.362H22.3891V206.518Z" fill="black"/>
<path id="Vector_29" opacity="0.3548" d="M24.5949 207.812H315.4V373.554H24.5949V207.812Z" fill="black"/>
<path id="Vector_30" opacity="0.3871" d="M26.7861 209.105H313.194V371.729H26.7861V209.105Z" fill="black"/>
<path id="Vector_31" opacity="0.4194" d="M28.9773 210.416H310.988V369.922H28.9773V210.416Z" fill="black"/>
<path id="Vector_32" opacity="0.4516" d="M31.1841 211.709H308.798V368.097H31.1841V211.709Z" fill="black"/>
<path id="Vector_33" opacity="0.4839" d="M33.3753 213.004H306.592V366.289H33.3753V213.004Z" fill="black"/>
<path id="Vector_34" opacity="0.5161" d="M35.5811 214.297H304.4V364.464H35.5811V214.297Z" fill="black"/>
<path id="Vector_35" opacity="0.5484" d="M37.787 215.592H302.194V362.642H37.787V215.592Z" fill="black"/>
<path id="Vector_36" opacity="0.5806" d="M39.9928 216.887H300.003V360.819H39.9928V216.887Z" fill="black"/>
<path id="Vector_37" opacity="0.6129" d="M42.184 218.195H297.797V359.024H42.184V218.195Z" fill="black"/>
<path id="Vector_38" opacity="0.6452" d="M44.3898 219.488H295.605V357.2H44.3898V219.488Z" fill="black"/>
<path id="Vector_39" opacity="0.6774" d="M46.5819 220.783H293.4V355.377H46.5819V220.783Z" fill="black"/>
<path id="Vector_40" opacity="0.7097" d="M48.7878 222.076H291.209V353.552H48.7878V222.076Z" fill="black"/>
<path id="Vector_41" opacity="0.7419" d="M50.979 223.371H289.003V351.744H50.979V223.371Z" fill="black"/>
<path id="Vector_42" opacity="0.7742" d="M53.1691 224.666H286.796V349.921H53.1691V224.666Z" fill="black"/>
<path id="Vector_43" opacity="0.8065" d="M55.376 225.975H284.605V348.112H55.376V225.975Z" fill="black"/>
<path id="Vector_44" opacity="0.8387" d="M57.5671 227.27H282.399V346.304H57.5671V227.27Z" fill="black"/>
<path id="Vector_45" opacity="0.871" d="M59.7729 228.562H280.208V344.479H59.7729V228.562Z" fill="black"/>
<path id="Vector_46" opacity="0.9032" d="M61.9788 229.857H278.002V342.656H61.9788V229.857Z" fill="black"/>
<path id="Vector_47" opacity="0.9355" d="M64.1856 231.15H275.812V340.831H64.1856V231.15Z" fill="black"/>
<path id="Vector_48" opacity="0.9677" d="M66.3768 232.445H273.605V339.023H66.3768V232.445Z" fill="black"/>
<path id="Vector_49" d="M68.5817 233.754H271.413V337.214H68.5817V233.754Z" fill="black"/>
</g>
<path id="Vector_50" d="M9.15372 198.43H331.107V383.702H9.15372V198.43Z" fill="white"/>
<path id="Vector_51" d="M9.15372 198.43H331.107V215.622H9.15372V198.43Z" fill="#E4DEE0"/>
<path id="Vector_52" d="M9.15422 215.621H123.041V383.701H9.15422V215.621Z" fill="#EDEDED"/>
<path id="Vector_53" d="M23.4631 225.9H109.79V231.048H23.4631V225.9Z" fill="white"/>
<path id="Vector_54" d="M23.4631 240.24H109.79V245.387H23.4631V240.24Z" fill="white"/>
<path id="Vector_55" d="M23.4631 254.58H109.79V259.727H23.4631V254.58Z" fill="white"/>
<g id="Group_8">
<path id="Vector_56" d="M61.229 326.435C112.143 249.844 138.541 253.859 186.44 261.168C194.411 262.389 202.661 263.639 211.794 264.653C220.809 265.653 229.162 265.065 236.604 262.889L235.574 259.344C228.589 261.374 220.735 261.933 212.206 260.977C203.146 259.962 194.94 258.712 186.999 257.506C139.232 250.212 110.393 245.814 58.1554 324.376L61.229 326.435Z" fill="#03B74B"/>
</g>
<g id="Group_9">
<path id="Vector_57" d="M327.608 104.059C327.755 104.353 327.902 104.647 328.078 104.941C328.49 105.647 328.961 106.338 329.505 106.985C329.534 106.956 329.549 106.956 329.549 106.956L328.078 103.809C328.005 103.838 327.858 103.941 327.608 104.059Z" fill="#9FC380"/>
<path id="Vector_58" d="M234.457 259.844L235.325 263.241C267.282 254.285 277.4 213.901 285.503 181.459C287.636 172.929 289.636 164.855 291.9 157.972C303.754 121.486 328.211 107.691 329.52 106.985C328.975 106.353 328.505 105.662 328.093 104.941C327.917 104.647 327.769 104.353 327.622 104.059C323.916 106.147 300.577 120.5 288.724 156.855C286.459 163.855 284.415 171.973 282.282 180.562C274.385 212.122 264.546 251.417 234.457 259.844Z" fill="#03B74B"/>
</g>
<g id="Group 1000004165">
<g id="Vector_59" filter="url(#filter1_d_339_56554)">
<path d="M50.9196 346.45C42.6675 346.45 35.9778 339.76 35.9778 331.508C35.9778 323.256 42.6675 316.566 50.9196 316.566C59.1717 316.566 65.8613 323.256 65.8613 331.508C65.8613 339.76 59.1717 346.45 50.9196 346.45Z" fill="#CFE6D8"/>
<path d="M36.4778 331.508C36.4778 339.484 42.9436 345.95 50.9196 345.95C58.8955 345.95 65.3613 339.484 65.3613 331.508C65.3613 323.532 58.8955 317.066 50.9196 317.066C42.9436 317.066 36.4778 323.532 36.4778 331.508Z" stroke="#234046"/>
</g>
<path id="Vector_60" d="M50.6162 321.262H54.8684L51.9483 327.658L51.7433 328.107L52.1897 328.318L55.8486 330.045L49.0851 341.3L50.7313 333.127L50.8136 332.718L50.4263 332.564L47.2148 331.283L50.5893 321.262H50.6162Z" fill="#00CE58" stroke="#234046"/>
</g>
<path id="Vector_61" d="M215.617 182.722C210.941 171.781 190.793 181.531 185.41 185.708C185.41 185.708 171.969 183.311 165.395 185.708C165.395 185.708 159.115 183.311 150.762 185.708L118.79 197.841L158.527 198.855C158.527 198.855 163.909 201.547 165.101 209.018C166.292 216.488 177.057 222.768 184.822 216.783C184.822 216.783 195.999 220.062 197.587 210.503C199.175 200.944 197.587 196.164 197.587 196.164C197.587 196.164 220.72 194.679 215.617 182.722Z" fill="#F79D91"/>
<g id="Group_10">
<path id="Vector_62" d="M197.573 197.401C197.808 197.401 198.044 197.328 198.264 197.181C198.823 196.798 198.97 196.033 198.588 195.475C198.338 195.107 192.485 186.577 185.764 184.533C185.117 184.342 184.425 184.709 184.234 185.357C184.043 186.004 184.411 186.695 185.058 186.886C190.94 188.665 196.499 196.783 196.558 196.857C196.794 197.21 197.176 197.401 197.573 197.401Z" fill="#EC6567"/>
</g>
<g id="Group_11">
<path id="Vector_63" d="M184.808 218.02C185.338 218.02 185.823 217.681 185.985 217.152C186.043 216.946 191.911 196.828 165.91 184.606C165.293 184.312 164.557 184.577 164.278 185.195C163.984 185.812 164.248 186.548 164.866 186.827C188.867 198.107 183.852 215.681 183.632 216.431C183.44 217.078 183.793 217.77 184.455 217.961C184.573 217.99 184.69 218.02 184.808 218.02Z" fill="#EC6567"/>
</g>
<path id="Vector_64" d="M115.79 198.431C115.79 198.431 131.026 173.474 146.262 182.724C161.498 191.975 163.292 217.387 161.203 219.476C159.115 221.564 151.041 221.873 143.57 209.622C136.099 197.372 131.32 198.563 131.32 198.563L115.79 198.431Z" fill="#F8A393"/>
<path id="Vector_65" d="M115.29 198.533C118.158 194.474 121.511 190.738 125.29 187.576C129.055 184.488 133.497 181.856 138.217 181.635C142.968 181.253 147.174 184.165 150.409 187.621C153.645 191.15 155.924 195.503 157.498 200.062C159.027 204.636 159.954 209.489 160.057 214.239C160.086 215.401 160.057 216.607 159.88 217.607C159.836 218.122 159.571 218.563 159.792 218.166C159.689 218.298 159.277 218.416 158.924 218.548C157.262 218.975 155.042 218.386 153.159 217.284C151.218 216.239 149.453 214.68 147.894 212.916C146.277 211.151 145.027 209.21 143.468 207.092C141.923 205.048 140.276 203.077 138.32 201.356C137.335 200.518 136.276 199.753 135.1 199.165C133.938 198.592 132.644 198.092 131.261 198.386L131.35 198.739C132.482 198.753 133.6 199.4 134.541 200.077C135.511 200.768 136.35 201.651 137.144 202.562C138.747 204.371 140.1 206.401 141.321 208.504C143.644 212.769 146.527 217.534 151.291 220.46C153.674 221.843 156.542 222.945 159.821 222.254C160.645 222.019 161.468 221.74 162.292 221.019C162.454 220.916 162.763 220.563 162.998 220.181C163.16 219.872 163.233 219.651 163.336 219.387C163.454 218.96 163.542 218.548 163.586 218.195C163.792 216.725 163.763 215.416 163.704 214.092C163.336 208.871 162.115 203.856 160.262 199.047C158.409 194.268 155.792 189.679 152.13 185.959C150.277 184.12 148.218 182.517 145.85 181.297C143.482 180.061 140.718 179.547 138.07 179.782C132.703 180.326 128.261 183.385 124.54 186.723C120.834 190.15 117.643 194.077 114.952 198.312L115.29 198.533Z" fill="white"/>
</g>
<defs>
<filter id="filter0_d_339_56554" x="321.978" y="79.5664" width="37.8838" height="37.8828" filterUnits="userSpaceOnUse" color-interpolation-filters="sRGB">
<feFlood flood-opacity="0" result="BackgroundImageFix"/>
<feColorMatrix in="SourceAlpha" type="matrix" values="0 0 0 0 0 0 0 0 0 0 0 0 0 0 0 0 0 0 127 0" result="hardAlpha"/>
<feOffset dy="1"/>
<feGaussianBlur stdDeviation="2"/>
<feComposite in2="hardAlpha" operator="out"/>
<feColorMatrix type="matrix" values="0 0 0 0 0 0 0 0 0 0 0 0 0 0 0 0 0 0 0.25 0"/>
<feBlend mode="normal" in2="BackgroundImageFix" result="effect1_dropShadow_339_56554"/>
<feBlend mode="normal" in="SourceGraphic" in2="effect1_dropShadow_339_56554" result="shape"/>
</filter>
<filter id="filter1_d_339_56554" x="31.9775" y="313.566" width="37.8838" height="37.8828" filterUnits="userSpaceOnUse" color-interpolation-filters="sRGB">
<feFlood flood-opacity="0" result="BackgroundImageFix"/>
<feColorMatrix in="SourceAlpha" type="matrix" values="0 0 0 0 0 0 0 0 0 0 0 0 0 0 0 0 0 0 127 0" result="hardAlpha"/>
<feOffset dy="1"/>
<feGaussianBlur stdDeviation="2"/>
<feComposite in2="hardAlpha" operator="out"/>
<feColorMatrix type="matrix" values="0 0 0 0 0 0 0 0 0 0 0 0 0 0 0 0 0 0 0.25 0"/>
<feBlend mode="normal" in2="BackgroundImageFix" result="effect1_dropShadow_339_56554"/>
<feBlend mode="normal" in="SourceGraphic" in2="effect1_dropShadow_339_56554" result="shape"/>
</filter>
</defs>
</svg>
